# MagicaVoxel @ Ephtracy

# group
o 

# material
mtllib potion.vox.mtl
usemtl palette

# normals
vn -1 0 0
vn 1 0 0
vn 0 0 1
vn 0 0 -1
vn 0 -1 0
vn 0 1 0

# texcoords
vt 0.0566406 0.5
vt 0.0605469 0.5
vt 0.0644531 0.5
vt 0.123047 0.5
vt 0.154297 0.5
vt 0.208984 0.5
vt 0.716797 0.5
vt 0.728516 0.5
vt 0.748047 0.5

# verts
v 0.2 1.3 0.2
v 0.2 1.3 -0.4
v 0.2 1.4 0.3
v 0.2 1.4 0.2
v 0.2 1.4 0.1
v 0.2 1.4 0
v 0.2 1.4 -0.3
v 0.2 1.4 -0.4
v 0.2 1.4 -0.5
v 0.2 1.5 0.4
v 0.2 1.5 0.3
v 0.2 1.5 0.2
v 0.2 1.5 0.1
v 0.2 1.5 0
v 0.2 1.5 -0.3
v 0.2 1.5 -0.4
v 0.2 1.5 -0.5
v 0.2 1.5 -0.6
v 0.2 1.6 0.3
v 0.2 1.6 0.2
v 0.2 1.6 -0.4
v 0.2 1.6 -0.5
v 0.2 1.6 -0.6
v 0.2 1.7 0.2
v 0.2 1.7 0.1
v 0.2 1.7 -0.3
v 0.2 1.7 -0.4
v 0.2 1.7 -0.5
v 0.2 1.7 -0.6
v 0.2 1.8 0.3
v 0.2 1.8 0.2
v 0.2 1.8 0
v 0.2 1.8 -0.1
v 0.2 1.8 -0.4
v 0.2 1.8 -0.5
v 0.2 1.9 0.4
v 0.2 1.9 0.3
v 0.2 1.9 0.2
v 0.2 1.9 0.1
v 0.2 1.9 -0.2
v 0.2 1.9 -0.3
v 0.2 1.9 -0.4
v 0.2 1.9 -0.5
v 0.2 1.9 -0.6
v 0.2 2 0.3
v 0.2 2 0.2
v 0.2 2 0.1
v 0.2 2 0
v 0.2 2 -0.1
v 0.2 2 -0.2
v 0.2 2 -0.3
v 0.2 2 -0.4
v 0.2 2 -0.5
v 0.2 2.1 0.2
v 0.2 2.1 0.1
v 0.2 2.1 0
v 0.2 2.1 -0.2
v 0.2 2.1 -0.3
v 0.2 2.1 -0.4
v 0.2 2.3 0.2
v 0.2 2.3 0.1
v 0.2 2.3 0
v 0.2 2.3 -0.2
v 0.2 2.3 -0.3
v 0.2 2.3 -0.4
v 0.2 2.4 0.1
v 0.2 2.4 -0.3
v 0.2 2.5 0.1
v 0.2 2.5 -0.3
v 0.2 2.6 0.2
v 0.2 2.6 0.1
v 0.2 2.6 0
v 0.2 2.6 -0.3
v 0.2 2.6 -0.4
v 0.2 2.7 0.1
v 0.2 2.7 0
v 0.2 2.7 -0.3
v 0.3 1.3 0.2
v 0.3 1.3 -0.4
v 0.3 1.4 0.3
v 0.3 1.4 0.2
v 0.3 1.4 0.1
v 0.3 1.4 0
v 0.3 1.4 -0.3
v 0.3 1.4 -0.4
v 0.3 1.4 -0.5
v 0.3 1.5 0.4
v 0.3 1.5 0.3
v 0.3 1.5 0.2
v 0.3 1.5 0.1
v 0.3 1.5 0
v 0.3 1.5 -0.3
v 0.3 1.5 -0.4
v 0.3 1.5 -0.5
v 0.3 1.5 -0.6
v 0.3 1.6 0.3
v 0.3 1.6 0.2
v 0.3 1.6 -0.4
v 0.3 1.6 -0.5
v 0.3 1.6 -0.6
v 0.3 1.7 0.2
v 0.3 1.7 0.1
v 0.3 1.7 -0.3
v 0.3 1.7 -0.4
v 0.3 1.7 -0.5
v 0.3 1.7 -0.6
v 0.3 1.8 0.3
v 0.3 1.8 0.2
v 0.3 1.8 0
v 0.3 1.8 -0.1
v 0.3 1.8 -0.4
v 0.3 1.8 -0.5
v 0.3 1.9 0.4
v 0.3 1.9 0.3
v 0.3 1.9 0.2
v 0.3 1.9 0.1
v 0.3 1.9 -0.2
v 0.3 1.9 -0.3
v 0.3 1.9 -0.4
v 0.3 1.9 -0.5
v 0.3 1.9 -0.6
v 0.3 2 0.3
v 0.3 2 0.2
v 0.3 2 0.1
v 0.3 2 0
v 0.3 2 -0.1
v 0.3 2 -0.2
v 0.3 2 -0.3
v 0.3 2 -0.4
v 0.3 2 -0.5
v 0.3 2.1 0.2
v 0.3 2.1 0.1
v 0.3 2.1 0
v 0.3 2.1 -0.2
v 0.3 2.1 -0.3
v 0.3 2.1 -0.4
v 0.3 2.3 0.2
v 0.3 2.3 0.1
v 0.3 2.3 0
v 0.3 2.3 -0.2
v 0.3 2.3 -0.3
v 0.3 2.3 -0.4
v 0.3 2.4 0.1
v 0.3 2.4 -0.3
v 0.3 2.5 0.1
v 0.3 2.5 -0.3
v 0.3 2.6 0.2
v 0.3 2.6 0.1
v 0.3 2.6 0
v 0.3 2.6 -0.3
v 0.3 2.6 -0.4
v 0.3 2.7 0.1
v 0.3 2.7 0
v 0.3 2.7 -0.3
v 0.2 1.5 0.4
v 0.2 1.9 0.4
v 0.3 1.5 0.4
v 0.3 1.9 0.4
v 0.2 1.4 0.3
v 0.2 1.5 0.3
v 0.2 1.9 0.3
v 0.2 2 0.3
v 0.3 1.4 0.3
v 0.3 1.5 0.3
v 0.3 1.9 0.3
v 0.3 2 0.3
v 0.2 1.3 0.2
v 0.2 1.4 0.2
v 0.2 2 0.2
v 0.2 2.1 0.2
v 0.2 2.3 0.2
v 0.2 2.6 0.2
v 0.3 1.3 0.2
v 0.3 1.4 0.2
v 0.3 2 0.2
v 0.3 2.1 0.2
v 0.3 2.3 0.2
v 0.3 2.6 0.2
v 0.2 2.1 0.1
v 0.2 2.3 0.1
v 0.2 2.6 0.1
v 0.2 2.7 0.1
v 0.3 2.1 0.1
v 0.3 2.3 0.1
v 0.3 2.6 0.1
v 0.3 2.7 0.1
v 0.2 2.1 -0.2
v 0.2 2.3 -0.2
v 0.3 2.1 -0.2
v 0.3 2.3 -0.2
v 0.2 2 -0.3
v 0.2 2.1 -0.3
v 0.2 2.3 -0.3
v 0.2 2.4 -0.3
v 0.3 2 -0.3
v 0.3 2.1 -0.3
v 0.3 2.3 -0.3
v 0.3 2.4 -0.3
v 0.2 2 0.1
v 0.2 2.1 0.1
v 0.2 2.3 0.1
v 0.2 2.4 0.1
v 0.3 2 0.1
v 0.3 2.1 0.1
v 0.3 2.3 0.1
v 0.3 2.4 0.1
v 0.2 2.1 0
v 0.2 2.3 0
v 0.3 2.1 0
v 0.3 2.3 0
v 0.2 2.1 -0.3
v 0.2 2.3 -0.3
v 0.2 2.6 -0.3
v 0.2 2.7 -0.3
v 0.3 2.1 -0.3
v 0.3 2.3 -0.3
v 0.3 2.6 -0.3
v 0.3 2.7 -0.3
v 0.2 1.3 -0.4
v 0.2 1.4 -0.4
v 0.2 2 -0.4
v 0.2 2.1 -0.4
v 0.2 2.3 -0.4
v 0.2 2.6 -0.4
v 0.3 1.3 -0.4
v 0.3 1.4 -0.4
v 0.3 2 -0.4
v 0.3 2.1 -0.4
v 0.3 2.3 -0.4
v 0.3 2.6 -0.4
v 0.2 1.4 -0.5
v 0.2 1.5 -0.5
v 0.2 1.9 -0.5
v 0.2 2 -0.5
v 0.3 1.4 -0.5
v 0.3 1.5 -0.5
v 0.3 1.9 -0.5
v 0.3 2 -0.5
v 0.2 1.5 -0.6
v 0.2 1.6 -0.6
v 0.2 1.7 -0.6
v 0.2 1.9 -0.6
v 0.3 1.5 -0.6
v 0.3 1.6 -0.6
v 0.3 1.7 -0.6
v 0.3 1.9 -0.6
v 0.2 1.3 0.2
v 0.3 1.3 0.2
v 0.2 1.3 -0.4
v 0.3 1.3 -0.4
v 0.2 1.4 0.3
v 0.3 1.4 0.3
v 0.2 1.4 0.2
v 0.3 1.4 0.2
v 0.2 1.4 -0.4
v 0.3 1.4 -0.4
v 0.2 1.4 -0.5
v 0.3 1.4 -0.5
v 0.2 1.5 0.4
v 0.3 1.5 0.4
v 0.2 1.5 0.3
v 0.3 1.5 0.3
v 0.2 1.5 -0.5
v 0.3 1.5 -0.5
v 0.2 1.5 -0.6
v 0.3 1.5 -0.6
v 0.2 2.1 0.1
v 0.3 2.1 0.1
v 0.2 2.1 0
v 0.3 2.1 0
v 0.2 2.1 -0.2
v 0.3 2.1 -0.2
v 0.2 2.1 -0.3
v 0.3 2.1 -0.3
v 0.2 2.3 0.2
v 0.3 2.3 0.2
v 0.2 2.3 0.1
v 0.3 2.3 0.1
v 0.2 2.3 -0.3
v 0.3 2.3 -0.3
v 0.2 2.3 -0.4
v 0.3 2.3 -0.4
v 0.2 2.4 0.1
v 0.3 2.4 0.1
v 0.2 2.4 -0.3
v 0.3 2.4 -0.3
v 0.2 1.9 0.4
v 0.3 1.9 0.4
v 0.2 1.9 0.3
v 0.3 1.9 0.3
v 0.2 1.9 -0.5
v 0.3 1.9 -0.5
v 0.2 1.9 -0.6
v 0.3 1.9 -0.6
v 0.2 2 0.3
v 0.3 2 0.3
v 0.2 2 0.2
v 0.3 2 0.2
v 0.2 2 0.1
v 0.3 2 0.1
v 0.2 2 0
v 0.3 2 0
v 0.2 2 -0.1
v 0.3 2 -0.1
v 0.2 2 -0.2
v 0.3 2 -0.2
v 0.2 2 -0.3
v 0.3 2 -0.3
v 0.2 2 -0.4
v 0.3 2 -0.4
v 0.2 2 -0.5
v 0.3 2 -0.5
v 0.2 2.1 0.2
v 0.3 2.1 0.2
v 0.2 2.1 0.1
v 0.3 2.1 0.1
v 0.2 2.1 -0.3
v 0.3 2.1 -0.3
v 0.2 2.1 -0.4
v 0.3 2.1 -0.4
v 0.2 2.3 0.1
v 0.3 2.3 0.1
v 0.2 2.3 0
v 0.3 2.3 0
v 0.2 2.3 -0.2
v 0.3 2.3 -0.2
v 0.2 2.3 -0.3
v 0.3 2.3 -0.3
v 0.2 2.6 0.2
v 0.3 2.6 0.2
v 0.2 2.6 0.1
v 0.3 2.6 0.1
v 0.2 2.6 -0.3
v 0.3 2.6 -0.3
v 0.2 2.6 -0.4
v 0.3 2.6 -0.4
v 0.2 2.7 0.1
v 0.3 2.7 0.1
v 0.2 2.7 0
v 0.3 2.7 0
v 0.2 2.7 -0.3
v 0.3 2.7 -0.3

# faces
f 4/7/1 2/7/1 1/7/1
f 5/7/1 2/7/1 4/7/1
f 6/7/1 2/7/1 5/7/1
f 7/7/1 2/7/1 6/7/1
f 8/7/1 2/7/1 7/7/1
f 11/8/1 4/8/1 3/8/1
f 12/2/1 5/2/1 4/2/1
f 12/8/1 4/8/1 11/8/1
f 13/9/1 6/9/1 5/9/1
f 13/2/1 5/2/1 12/2/1
f 14/1/1 7/1/1 6/1/1
f 14/9/1 6/9/1 13/9/1
f 15/2/1 8/2/1 7/2/1
f 15/1/1 7/1/1 14/1/1
f 16/7/1 9/7/1 8/7/1
f 16/2/1 8/2/1 15/2/1
f 17/7/1 9/7/1 16/7/1
f 19/7/1 11/7/1 10/7/1
f 19/2/1 12/2/1 11/2/1
f 20/9/1 13/9/1 12/9/1
f 20/2/1 12/2/1 19/2/1
f 21/1/1 15/1/1 14/1/1
f 21/2/1 17/2/1 16/2/1
f 21/1/1 14/1/1 13/1/1
f 21/1/1 16/1/1 15/1/1
f 22/7/1 18/7/1 17/7/1
f 22/2/1 17/2/1 21/2/1
f 23/7/1 18/7/1 22/7/1
f 24/9/1 13/9/1 20/9/1
f 24/1/1 20/1/1 19/1/1
f 25/1/1 21/1/1 13/1/1
f 25/9/1 13/9/1 24/9/1
f 25/1/1 22/1/1 21/1/1
f 26/1/1 22/1/1 25/1/1
f 27/1/1 22/1/1 26/1/1
f 28/8/1 23/8/1 22/8/1
f 28/1/1 22/1/1 27/1/1
f 29/8/1 23/8/1 28/8/1
f 30/1/1 24/1/1 19/1/1
f 30/7/1 19/7/1 10/7/1
f 30/1/1 25/1/1 24/1/1
f 30/1/1 26/1/1 25/1/1
f 31/1/1 26/1/1 30/1/1
f 32/1/1 26/1/1 31/1/1
f 33/1/1 26/1/1 32/1/1
f 34/9/1 27/9/1 26/9/1
f 34/1/1 28/1/1 27/1/1
f 35/9/1 29/9/1 28/9/1
f 35/1/1 28/1/1 34/1/1
f 36/7/1 30/7/1 10/7/1
f 37/2/1 31/2/1 30/2/1
f 37/7/1 30/7/1 36/7/1
f 38/1/1 32/1/1 31/1/1
f 38/2/1 31/2/1 37/2/1
f 39/1/1 32/1/1 38/1/1
f 40/1/1 26/1/1 33/1/1
f 41/9/1 34/9/1 26/9/1
f 41/1/1 26/1/1 40/1/1
f 42/2/1 35/2/1 34/2/1
f 42/9/1 34/9/1 41/9/1
f 43/9/1 29/9/1 35/9/1
f 43/2/1 35/2/1 42/2/1
f 44/9/1 29/9/1 43/9/1
f 45/7/1 38/7/1 37/7/1
f 46/2/1 39/2/1 38/2/1
f 46/7/1 38/7/1 45/7/1
f 47/1/1 32/1/1 39/1/1
f 47/2/1 39/2/1 46/2/1
f 48/3/1 33/3/1 32/3/1
f 48/1/1 32/1/1 47/1/1
f 49/1/1 40/1/1 33/1/1
f 49/3/1 33/3/1 48/3/1
f 50/9/1 41/9/1 40/9/1
f 50/1/1 40/1/1 49/1/1
f 51/1/1 42/1/1 41/1/1
f 51/9/1 41/9/1 50/9/1
f 52/9/1 43/9/1 42/9/1
f 52/1/1 42/1/1 51/1/1
f 53/9/1 43/9/1 52/9/1
f 54/7/1 47/7/1 46/7/1
f 55/7/1 47/7/1 54/7/1
f 58/9/1 52/9/1 51/9/1
f 59/9/1 52/9/1 58/9/1
f 61/7/1 56/7/1 55/7/1
f 62/7/1 56/7/1 61/7/1
f 63/9/1 58/9/1 57/9/1
f 64/9/1 58/9/1 63/9/1
f 66/9/1 61/9/1 60/9/1
f 67/9/1 65/9/1 64/9/1
f 68/9/1 66/9/1 60/9/1
f 68/4/1 67/4/1 66/4/1
f 69/9/1 65/9/1 67/9/1
f 69/4/1 67/4/1 68/4/1
f 70/9/1 68/9/1 60/9/1
f 71/6/1 69/6/1 68/6/1
f 71/9/1 68/9/1 70/9/1
f 72/6/1 69/6/1 71/6/1
f 73/9/1 65/9/1 69/9/1
f 73/6/1 69/6/1 72/6/1
f 74/9/1 65/9/1 73/9/1
f 75/4/1 72/4/1 71/4/1
f 76/5/1 73/5/1 72/5/1
f 76/4/1 72/4/1 75/4/1
f 77/5/1 73/5/1 76/5/1
f 78/7/2 79/7/2 81/7/2
f 81/7/2 79/7/2 82/7/2
f 82/7/2 79/7/2 83/7/2
f 83/7/2 79/7/2 84/7/2
f 84/7/2 79/7/2 85/7/2
f 80/8/2 81/8/2 88/8/2
f 81/2/2 82/2/2 89/2/2
f 88/8/2 81/8/2 89/8/2
f 82/9/2 83/9/2 90/9/2
f 89/2/2 82/2/2 90/2/2
f 83/1/2 84/1/2 91/1/2
f 90/9/2 83/9/2 91/9/2
f 84/2/2 85/2/2 92/2/2
f 91/1/2 84/1/2 92/1/2
f 85/7/2 86/7/2 93/7/2
f 92/2/2 85/2/2 93/2/2
f 93/7/2 86/7/2 94/7/2
f 87/7/2 88/7/2 96/7/2
f 88/2/2 89/2/2 96/2/2
f 89/9/2 90/9/2 97/9/2
f 96/2/2 89/2/2 97/2/2
f 91/1/2 92/1/2 98/1/2
f 93/2/2 94/2/2 98/2/2
f 90/1/2 91/1/2 98/1/2
f 92/1/2 93/1/2 98/1/2
f 94/7/2 95/7/2 99/7/2
f 98/2/2 94/2/2 99/2/2
f 99/7/2 95/7/2 100/7/2
f 97/9/2 90/9/2 101/9/2
f 96/1/2 97/1/2 101/1/2
f 90/1/2 98/1/2 102/1/2
f 101/9/2 90/9/2 102/9/2
f 98/1/2 99/1/2 102/1/2
f 102/1/2 99/1/2 103/1/2
f 103/1/2 99/1/2 104/1/2
f 99/8/2 100/8/2 105/8/2
f 104/1/2 99/1/2 105/1/2
f 105/8/2 100/8/2 106/8/2
f 96/1/2 101/1/2 107/1/2
f 87/7/2 96/7/2 107/7/2
f 101/1/2 102/1/2 107/1/2
f 102/1/2 103/1/2 107/1/2
f 107/1/2 103/1/2 108/1/2
f 108/1/2 103/1/2 109/1/2
f 109/1/2 103/1/2 110/1/2
f 103/9/2 104/9/2 111/9/2
f 104/1/2 105/1/2 111/1/2
f 105/9/2 106/9/2 112/9/2
f 111/1/2 105/1/2 112/1/2
f 87/7/2 107/7/2 113/7/2
f 107/2/2 108/2/2 114/2/2
f 113/7/2 107/7/2 114/7/2
f 108/1/2 109/1/2 115/1/2
f 114/2/2 108/2/2 115/2/2
f 115/1/2 109/1/2 116/1/2
f 110/1/2 103/1/2 117/1/2
f 103/9/2 111/9/2 118/9/2
f 117/1/2 103/1/2 118/1/2
f 111/2/2 112/2/2 119/2/2
f 118/9/2 111/9/2 119/9/2
f 112/9/2 106/9/2 120/9/2
f 119/2/2 112/2/2 120/2/2
f 120/9/2 106/9/2 121/9/2
f 114/7/2 115/7/2 122/7/2
f 115/2/2 116/2/2 123/2/2
f 122/7/2 115/7/2 123/7/2
f 116/1/2 109/1/2 124/1/2
f 123/2/2 116/2/2 124/2/2
f 109/3/2 110/3/2 125/3/2
f 124/1/2 109/1/2 125/1/2
f 110/1/2 117/1/2 126/1/2
f 125/3/2 110/3/2 126/3/2
f 117/9/2 118/9/2 127/9/2
f 126/1/2 117/1/2 127/1/2
f 118/1/2 119/1/2 128/1/2
f 127/9/2 118/9/2 128/9/2
f 119/9/2 120/9/2 129/9/2
f 128/1/2 119/1/2 129/1/2
f 129/9/2 120/9/2 130/9/2
f 123/7/2 124/7/2 131/7/2
f 131/7/2 124/7/2 132/7/2
f 128/9/2 129/9/2 135/9/2
f 135/9/2 129/9/2 136/9/2
f 132/7/2 133/7/2 138/7/2
f 138/7/2 133/7/2 139/7/2
f 134/9/2 135/9/2 140/9/2
f 140/9/2 135/9/2 141/9/2
f 137/9/2 138/9/2 143/9/2
f 141/9/2 142/9/2 144/9/2
f 137/9/2 143/9/2 145/9/2
f 143/4/2 144/4/2 145/4/2
f 144/9/2 142/9/2 146/9/2
f 145/4/2 144/4/2 146/4/2
f 137/9/2 145/9/2 147/9/2
f 145/6/2 146/6/2 148/6/2
f 147/9/2 145/9/2 148/9/2
f 148/6/2 146/6/2 149/6/2
f 146/9/2 142/9/2 150/9/2
f 149/6/2 146/6/2 150/6/2
f 150/9/2 142/9/2 151/9/2
f 148/4/2 149/4/2 152/4/2
f 149/5/2 150/5/2 153/5/2
f 152/4/2 149/4/2 153/4/2
f 153/5/2 150/5/2 154/5/2
f 157/7/3 156/7/3 155/7/3
f 158/7/3 156/7/3 157/7/3
f 163/8/3 160/8/3 159/8/3
f 164/8/3 160/8/3 163/8/3
f 165/7/3 162/7/3 161/7/3
f 166/7/3 162/7/3 165/7/3
f 173/7/3 168/7/3 167/7/3
f 174/7/3 168/7/3 173/7/3
f 175/7/3 170/7/3 169/7/3
f 176/7/3 170/7/3 175/7/3
f 177/9/3 172/9/3 171/9/3
f 178/9/3 172/9/3 177/9/3
f 183/7/3 180/7/3 179/7/3
f 184/7/3 180/7/3 183/7/3
f 185/4/3 182/4/3 181/4/3
f 186/4/3 182/4/3 185/4/3
f 189/9/3 188/9/3 187/9/3
f 190/9/3 188/9/3 189/9/3
f 195/9/3 192/9/3 191/9/3
f 196/9/3 192/9/3 195/9/3
f 197/9/3 194/9/3 193/9/3
f 198/9/3 194/9/3 197/9/3
f 199/7/4 200/7/4 203/7/4
f 203/7/4 200/7/4 204/7/4
f 201/9/4 202/9/4 205/9/4
f 205/9/4 202/9/4 206/9/4
f 207/7/4 208/7/4 209/7/4
f 209/7/4 208/7/4 210/7/4
f 211/9/4 212/9/4 215/9/4
f 215/9/4 212/9/4 216/9/4
f 213/5/4 214/5/4 217/5/4
f 217/5/4 214/5/4 218/5/4
f 219/7/4 220/7/4 225/7/4
f 225/7/4 220/7/4 226/7/4
f 221/9/4 222/9/4 227/9/4
f 227/9/4 222/9/4 228/9/4
f 223/9/4 224/9/4 229/9/4
f 229/9/4 224/9/4 230/9/4
f 231/7/4 232/7/4 235/7/4
f 235/7/4 232/7/4 236/7/4
f 233/9/4 234/9/4 237/9/4
f 237/9/4 234/9/4 238/9/4
f 239/7/4 240/7/4 243/7/4
f 240/8/4 241/8/4 244/8/4
f 243/7/4 240/7/4 244/7/4
f 241/9/4 242/9/4 245/9/4
f 244/8/4 241/8/4 245/8/4
f 245/9/4 242/9/4 246/9/4
f 249/7/5 248/7/5 247/7/5
f 250/7/5 248/7/5 249/7/5
f 253/8/5 252/8/5 251/8/5
f 254/8/5 252/8/5 253/8/5
f 257/7/5 256/7/5 255/7/5
f 258/7/5 256/7/5 257/7/5
f 261/7/5 260/7/5 259/7/5
f 262/7/5 260/7/5 261/7/5
f 265/7/5 264/7/5 263/7/5
f 266/7/5 264/7/5 265/7/5
f 269/7/5 268/7/5 267/7/5
f 270/7/5 268/7/5 269/7/5
f 273/9/5 272/9/5 271/9/5
f 274/9/5 272/9/5 273/9/5
f 277/9/5 276/9/5 275/9/5
f 278/9/5 276/9/5 277/9/5
f 281/9/5 280/9/5 279/9/5
f 282/9/5 280/9/5 281/9/5
f 285/4/5 284/4/5 283/4/5
f 286/4/5 284/4/5 285/4/5
f 287/7/6 288/7/6 289/7/6
f 289/7/6 288/7/6 290/7/6
f 291/9/6 292/9/6 293/9/6
f 293/9/6 292/9/6 294/9/6
f 295/7/6 296/7/6 297/7/6
f 297/7/6 296/7/6 298/7/6
f 299/1/6 300/1/6 301/1/6
f 301/1/6 300/1/6 302/1/6
f 301/3/6 302/3/6 303/3/6
f 303/3/6 302/3/6 304/3/6
f 303/1/6 304/1/6 305/1/6
f 305/1/6 304/1/6 306/1/6
f 305/9/6 306/9/6 307/9/6
f 307/9/6 306/9/6 308/9/6
f 309/9/6 310/9/6 311/9/6
f 311/9/6 310/9/6 312/9/6
f 313/7/6 314/7/6 315/7/6
f 315/7/6 314/7/6 316/7/6
f 317/9/6 318/9/6 319/9/6
f 319/9/6 318/9/6 320/9/6
f 321/7/6 322/7/6 323/7/6
f 323/7/6 322/7/6 324/7/6
f 325/9/6 326/9/6 327/9/6
f 327/9/6 326/9/6 328/9/6
f 329/9/6 330/9/6 331/9/6
f 331/9/6 330/9/6 332/9/6
f 333/9/6 334/9/6 335/9/6
f 335/9/6 334/9/6 336/9/6
f 337/4/6 338/4/6 339/4/6
f 339/4/6 338/4/6 340/4/6
f 339/5/6 340/5/6 341/5/6
f 341/5/6 340/5/6 342/5/6
